{
  "accessors": [
    {
      "bufferView": 2,
      "componentType": 5126,
      "count": 2504,
      "max": [
        9.041396141052246,
        1.5794545412063599,
        7.633933067321777
      ],
      "min": [
        -9.041396141052246,
        -14.071864128112793,
        -7.720175743103027
      ],
      "type": "VEC3"
    },
    {
      "bufferView": 2,
      "byteOffset": 30048,
      "componentType": 5126,
      "count": 2504,
      "max": [
        0.9999604225158691,
        0.9974027872085571,
        0.9996699094772339
      ],
      "min": [
        -0.9999604225158691,
        -0.9979956746101379,
        -0.9998917579650879
      ],
      "type": "VEC3"
    },
    {
      "bufferView": 3,
      "componentType": 5126,
      "count": 2504,
      "max": [
        0.9996285438537598,
        0.9995468258857727,
        0.9997561573982239,
        1.0
      ],
      "min": [
        -0.9996285438537598,
        -0.9999977946281433,
        -0.9964718818664551,
        -1.0
      ],
      "type": "VEC4"
    },
    {
      "bufferView": 1,
      "componentType": 5126,
      "count": 2504,
      "max": [
        0.9994446039199829,
        0.9995169043540955
      ],
      "min": [
        0.0004830842080991715,
        0.0004830360412597656
      ],
      "type": "VEC2"
    },
    {
      "bufferView": 1,
      "byteOffset": 20032,
      "componentType": 5126,
      "count": 2504,
      "max": [
        0.9994446039199829,
        0.9995169043540955
      ],
      "min": [
        0.0004830842080991715,
        0.0004830360412597656
      ],
      "type": "VEC2"
    },
    {
      "bufferView": 1,
      "byteOffset": 40064,
      "componentType": 5126,
      "count": 2504,
      "max": [
        0.9994446039199829,
        0.9995169043540955
      ],
      "min": [
        0.0004830842080991715,
        0.0004830360412597656
      ],
      "type": "VEC2"
    },
    {
      "bufferView": 1,
      "byteOffset": 60096,
      "componentType": 5126,
      "count": 2504,
      "max": [
        0.9994446039199829,
        0.9995169043540955
      ],
      "min": [
        0.0004830842080991715,
        0.0004830360412597656
      ],
      "type": "VEC2"
    },
    {
      "bufferView": 0,
      "componentType": 5125,
      "count": 8664,
      "type": "SCALAR"
    },
    {
      "bufferView": 2,
      "byteOffset": 60096,
      "componentType": 5126,
      "count": 2120,
      "max": [
        7.803833961486816,
        0.06737550348043442,
        0.4688642621040344
      ],
      "min": [
        -7.814106464385986,
        -9.502453804016113,
        -4.371570110321045
      ],
      "type": "VEC3"
    },
    {
      "bufferView": 2,
      "byteOffset": 85536,
      "componentType": 5126,
      "count": 2120,
      "max": [
        0.9981613159179688,
        0.9998904466629028,
        0.9999139308929443
      ],
      "min": [
        -0.9981613159179688,
        -0.9999978542327881,
        -0.9999048709869385
      ],
      "type": "VEC3"
    },
    {
      "bufferView": 3,
      "byteOffset": 40064,
      "componentType": 5126,
      "count": 2120,
      "max": [
        0.9965968132019043,
        0.9999253749847412,
        0.9999979138374329,
        1.0
      ],
      "min": [
        -0.9996433854103088,
        -0.9998770952224731,
        -0.9998905062675476,
        -1.0
      ],
      "type": "VEC4"
    },
    {
      "bufferView": 1,
      "byteOffset": 80128,
      "componentType": 5126,
      "count": 2120,
      "max": [
        0.9577733278274536,
        0.9990059733390808
      ],
      "min": [
        0.0008961260318756104,
        0.0013409852981567383
      ],
      "type": "VEC2"
    },
    {
      "bufferView": 1,
      "byteOffset": 97088,
      "componentType": 5126,
      "count": 2120,
      "max": [
        0.9577733278274536,
        0.9990059733390808
      ],
      "min": [
        0.0008961260318756104,
        0.0013409852981567383
      ],
      "type": "VEC2"
    },
    {
      "bufferView": 1,
      "byteOffset": 114048,
      "componentType": 5126,
      "count": 2120,
      "max": [
        0.9577733278274536,
        0.9990059733390808
      ],
      "min": [
        0.0008961260318756104,
        0.0013409852981567383
      ],
      "type": "VEC2"
    },
    {
      "bufferView": 1,
      "byteOffset": 131008,
      "componentType": 5126,
      "count": 2120,
      "max": [
        0.9577733278274536,
        0.9990059733390808
      ],
      "min": [
        0.0008961260318756104,
        0.0013409852981567383
      ],
      "type": "VEC2"
    },
    {
      "bufferView": 0,
      "byteOffset": 34656,
      "componentType": 5125,
      "count": 6576,
      "type": "SCALAR"
    },
    {
      "bufferView": 2,
      "byteOffset": 110976,
      "componentType": 5126,
      "count": 1209,
      "max": [
        6.931522846221924,
        4.378250598907471,
        13.717606544494629
      ],
      "min": [
        -6.986841201782227,
        -9.701066017150879,
        -0.9908020496368408
      ],
      "type": "VEC3"
    },
    {
      "bufferView": 2,
      "byteOffset": 125484,
      "componentType": 5126,
      "count": 1209,
      "max": [
        0.999232292175293,
        0.9039444327354431,
        0.999483585357666
      ],
      "min": [
        -0.9997379779815674,
        -0.998011589050293,
        -0.9995087385177612
      ],
      "type": "VEC3"
    },
    {
      "bufferView": 3,
      "byteOffset": 73984,
      "componentType": 5126,
      "count": 1209,
      "max": [
        0.9937616586685181,
        0.9995045065879822,
        0.996374249458313,
        1.0
      ],
      "min": [
        -0.9998490214347839,
        -0.9998351335525513,
        -0.9941398501396179,
        -1.0
      ],
      "type": "VEC4"
    },
    {
      "bufferView": 1,
      "byteOffset": 147968,
      "componentType": 5126,
      "count": 1209,
      "max": [
        0.9960733652114868,
        0.9915720224380493
      ],
      "min": [
        0.005155295133590698,
        0.016936182975769043
      ],
      "type": "VEC2"
    },
    {
      "bufferView": 1,
      "byteOffset": 157640,
      "componentType": 5126,
      "count": 1209,
      "max": [
        0.9960733652114868,
        0.9915720224380493
      ],
      "min": [
        0.005155295133590698,
        0.016936182975769043
      ],
      "type": "VEC2"
    },
    {
      "bufferView": 1,
      "byteOffset": 167312,
      "componentType": 5126,
      "count": 1209,
      "max": [
        0.9960733652114868,
        0.9915720224380493
      ],
      "min": [
        0.005155295133590698,
        0.016936182975769043
      ],
      "type": "VEC2"
    },
    {
      "bufferView": 1,
      "byteOffset": 176984,
      "componentType": 5126,
      "count": 1209,
      "max": [
        0.9960733652114868,
        0.9915720224380493
      ],
      "min": [
        0.005155295133590698,
        0.016936182975769043
      ],
      "type": "VEC2"
    },
    {
      "bufferView": 0,
      "byteOffset": 60960,
      "componentType": 5125,
      "count": 5232,
      "type": "SCALAR"
    }
  ],
  "asset": {
    "extras": {
      "author": "Amad Junaid (https://sketchfab.com/amadjunaid)",
      "license": "CC-BY-4.0 (http://creativecommons.org/licenses/by/4.0/)",
      "source": "https://sketchfab.com/3d-models/climbing-harness-3c489fa5b10a470db78213c39cd577ce",
      "title": "Climbing Harness"
    },
    "generator": "Sketchfab-12.65.0",
    "version": "2.0"
  },
  "bufferViews": [
    {
      "buffer": 0,
      "byteLength": 81888,
      "name": "floatBufferViews",
      "target": 34963
    },
    {
      "buffer": 0,
      "byteLength": 186656,
      "byteOffset": 81888,
      "byteStride": 8,
      "name": "floatBufferViews",
      "target": 34962
    },
    {
      "buffer": 0,
      "byteLength": 139992,
      "byteOffset": 268544,
      "byteStride": 12,
      "name": "floatBufferViews",
      "target": 34962
    },
    {
      "buffer": 0,
      "byteLength": 93328,
      "byteOffset": 408536,
      "byteStride": 16,
      "name": "floatBufferViews",
      "target": 34962
    }
  ],
  "buffers": [
    {
      "byteLength": 501864,
      "uri": "scene.bin"
    }
  ],
  "images": [
    {
      "uri": "textures/Harness_1_2k_baseColor.png"
    },
    {
      "uri": "textures/Harness_1_2k_metallicRoughness.png"
    },
    {
      "uri": "textures/Harness_1_2k_normal.png"
    },
    {
      "uri": "textures/Harness_2_2k_baseColor.png"
    },
    {
      "uri": "textures/Harness_2_2k_metallicRoughness.png"
    },
    {
      "uri": "textures/Harness_2_2k_normal.png"
    },
    {
      "uri": "textures/Harness_3_2k_baseColor.png"
    },
    {
      "uri": "textures/Harness_3_2k_metallicRoughness.png"
    },
    {
      "uri": "textures/Harness_3_2k_normal.png"
    }
  ],
  "materials": [
    {
      "doubleSided": true,
      "name": "Harness_1_2k",
      "normalTexture": {
        "index": 2
      },
      "pbrMetallicRoughness": {
        "baseColorTexture": {
          "index": 0
        },
        "metallicRoughnessTexture": {
          "index": 1
        }
      }
    },
    {
      "doubleSided": true,
      "name": "Harness_2_2k",
      "normalTexture": {
        "index": 5
      },
      "pbrMetallicRoughness": {
        "baseColorTexture": {
          "index": 3
        },
        "metallicRoughnessTexture": {
          "index": 4
        }
      }
    },
    {
      "doubleSided": true,
      "name": "Harness_3_2k",
      "normalTexture": {
        "index": 8
      },
      "pbrMetallicRoughness": {
        "baseColorTexture": {
          "index": 6
        },
        "metallicFactor": 0.0,
        "metallicRoughnessTexture": {
          "index": 7
        }
      }
    }
  ],
  "meshes": [
    {
      "name": "Object_0",
      "primitives": [
        {
          "attributes": {
            "NORMAL": 1,
            "POSITION": 0,
            "TANGENT": 2,
            "TEXCOORD_0": 3,
            "TEXCOORD_1": 4,
            "TEXCOORD_2": 5,
            "TEXCOORD_3": 6
          },
          "indices": 7,
          "material": 0,
          "mode": 4
        }
      ]
    },
    {
      "name": "Object_1",
      "primitives": [
        {
          "attributes": {
            "NORMAL": 9,
            "POSITION": 8,
            "TANGENT": 10,
            "TEXCOORD_0": 11,
            "TEXCOORD_1": 12,
            "TEXCOORD_2": 13,
            "TEXCOORD_3": 14
          },
          "indices": 15,
          "material": 1,
          "mode": 4
        }
      ]
    },
    {
      "name": "Object_2",
      "primitives": [
        {
          "attributes": {
            "NORMAL": 17,
            "POSITION": 16,
            "TANGENT": 18,
            "TEXCOORD_0": 19,
            "TEXCOORD_1": 20,
            "TEXCOORD_2": 21,
            "TEXCOORD_3": 22
          },
          "indices": 23,
          "material": 2,
          "mode": 4
        }
      ]
    }
  ],
  "nodes": [
    {
      "children": [
        1
      ],
      "matrix": [
        1.0,
        0.0,
        0.0,
        0.0,
        0.0,
        2.220446049250313e-16,
        -1.0,
        0.0,
        0.0,
        1.0,
        2.220446049250313e-16,
        0.0,
        0.0,
        0.0,
        0.0,
        1.0
      ],
      "name": "Sketchfab_model"
    },
    {
      "children": [
        2
      ],
      "name": "root"
    },
    {
      "children": [
        3,
        5,
        7
      ],
      "matrix": [
        1.0,
        0.0,
        0.0,
        0.0,
        0.0,
        2.220446049250313e-16,
        1.0,
        0.0,
        0.0,
        -1.0,
        2.220446049250313e-16,
        0.0,
        0.0,
        0.0,
        0.0,
        1.0
      ],
      "name": "GLTF_SceneRootNode"
    },
    {
      "children": [
        4
      ],
      "matrix": [
        0.010616449639201164,
        0.0,
        0.0,
        0.0,
        0.0,
        0.010616449639201164,
        0.0,
        0.0,
        0.0,
        0.0,
        0.010616449639201164,
        0.0,
        -0.12243866920471191,
        0.15558145940303802,
        -0.9108012914657593,
        1.0
      ],
      "name": "Harness_1_0"
    },
    {
      "mesh": 0,
      "name": "Object_4"
    },
    {
      "children": [
        6
      ],
      "matrix": [
        0.010616449639201164,
        0.0,
        0.0,
        0.0,
        0.0,
        0.010616449639201164,
        0.0,
        0.0,
        0.0,
        0.0,
        0.010616449639201164,
        0.0,
        -0.12238419055938721,
        0.16124294698238373,
        -0.8314836025238037,
        1.0
      ],
      "name": "Harness_2_1"
    },
    {
      "mesh": 1,
      "name": "Object_6"
    },
    {
      "children": [
        8
      ],
      "matrix": [
        0.010616449639201164,
        0.0,
        0.0,
        0.0,
        0.0,
        0.010616449639201164,
        0.0,
        0.0,
        0.0,
        0.0,
        0.010616449639201164,
        0.0,
        -0.12243866920471191,
        0.12907420098781586,
        -0.9837193489074707,
        1.0
      ],
      "name": "Harness_3_2"
    },
    {
      "mesh": 2,
      "name": "Object_8"
    }
  ],
  "samplers": [
    {
      "magFilter": 9729,
      "minFilter": 9987,
      "wrapS": 10497,
      "wrapT": 10497
    }
  ],
  "scene": 0,
  "scenes": [
    {
      "name": "Sketchfab_Scene",
      "nodes": [
        0
      ]
    }
  ],
  "textures": [
    {
      "sampler": 0,
      "source": 0
    },
    {
      "sampler": 0,
      "source": 1
    },
    {
      "sampler": 0,
      "source": 2
    },
    {
      "sampler": 0,
      "source": 3
    },
    {
      "sampler": 0,
      "source": 4
    },
    {
      "sampler": 0,
      "source": 5
    },
    {
      "sampler": 0,
      "source": 6
    },
    {
      "sampler": 0,
      "source": 7
    },
    {
      "sampler": 0,
      "source": 8
    }
  ]
}
